<?xml version="1.0" standalone="no"?>
<!DOCTYPE svg PUBLIC "-//W3C//DTD SVG 20010904//EN"
 "http://www.w3.org/TR/2001/REC-SVG-20010904/DTD/svg10.dtd">
<svg version="1.0" xmlns="http://www.w3.org/2000/svg"
 width="500.000000pt" height="500.000000pt" viewBox="0 0 500.000000 500.000000"
 preserveAspectRatio="xMidYMid meet">

<g transform="translate(0.000000,500.000000) scale(0.100000,-0.100000)"
fill="#000000" stroke="none">
<path d="M2280 4245 c-157 -32 -407 -171 -516 -287 -57 -60 -165 -212 -162
-228 6 -30 28 -14 79 60 96 138 211 235 370 317 168 86 218 98 409 98 161 0
167 -1 260 -33 52 -19 101 -38 108 -45 10 -8 16 -7 23 4 5 8 9 18 9 22 0 13
-127 67 -208 88 -89 23 -270 25 -372 4z"/>
<path d="M2926 4103 c-16 -17 1 -37 91 -105 251 -189 337 -300 474 -615 78
-178 104 -252 119 -344 14 -78 24 -100 39 -84 11 12 -11 144 -35 219 -23 70
-144 357 -182 432 -71 141 -204 287 -382 420 -112 83 -115 85 -124 77z"/>
<path d="M2300 4002 c0 -16 16 -21 114 -35 193 -27 404 -110 578 -228 147
-100 279 -278 367 -493 9 -21 15 -26 23 -18 38 38 -134 335 -265 459 -152 144
-441 281 -673 318 -121 20 -144 19 -144 -3z"/>
<path d="M2055 3939 c-83 -52 -204 -160 -252 -224 -150 -199 -252 -452 -282
-700 -14 -119 -14 -135 4 -135 8 0 15 6 15 13 0 39 24 194 41 267 44 188 147
405 255 536 49 61 176 169 242 206 33 19 52 36 50 46 -5 26 -21 24 -73 -9z"/>
<path d="M2240 3841 c-98 -31 -227 -138 -328 -272 -54 -72 -132 -208 -132
-231 0 -33 28 -18 44 23 29 73 128 209 216 298 101 103 167 139 269 149 49 5
66 11 66 22 0 11 -14 15 -55 17 -30 1 -66 -2 -80 -6z"/>
<path d="M2484 3825 c-9 -23 0 -28 67 -42 33 -6 80 -22 104 -34 58 -29 219
-163 268 -223 96 -116 188 -348 207 -519 11 -105 22 -137 46 -137 64 0 9 257
-115 532 -64 143 -121 215 -241 308 -114 87 -147 101 -293 125 -29 5 -39 2
-43 -10z"/>
<path d="M2270 3594 c-110 -23 -160 -52 -141 -82 5 -9 18 -7 47 7 95 46 243
52 354 13 69 -24 155 -78 226 -143 58 -52 71 -58 80 -34 10 26 -24 63 -117
125 -105 72 -149 92 -246 114 -85 19 -116 19 -203 0z"/>
<path d="M1976 3388 c-57 -94 -81 -155 -116 -303 -41 -171 -46 -215 -27 -215
11 0 19 17 27 58 47 237 81 338 145 436 47 72 55 96 31 96 -8 0 -35 -33 -60
-72z"/>
<path d="M1401 3372 c-39 -101 -71 -261 -78 -384 -5 -87 -4 -98 11 -98 13 0
16 10 16 53 0 125 49 358 95 448 13 26 21 50 18 53 -18 18 -35 -2 -62 -72z"/>
<path d="M2216 3336 c-46 -17 -89 -56 -127 -115 -29 -44 -38 -91 -19 -91 5 0
32 29 60 64 71 91 107 106 243 106 88 0 109 3 114 15 3 9 2 19 -2 23 -14 14
-229 13 -269 -2z"/>
<path d="M2587 3328 c-2 -7 32 -50 77 -95 94 -96 144 -173 175 -274 26 -83 37
-101 47 -76 16 43 -88 285 -145 337 -139 127 -145 131 -154 108z"/>
<path d="M2906 3301 c-4 -6 0 -23 8 -39 42 -81 99 -266 112 -360 7 -52 19 -72
34 -56 11 13 -33 220 -71 330 -31 90 -69 148 -83 125z"/>
<path d="M2370 3152 c0 -14 8 -23 23 -26 99 -19 166 -40 193 -58 43 -29 78
-86 100 -159 18 -59 44 -80 44 -35 0 13 -9 54 -21 91 -17 55 -31 78 -72 119
-57 57 -102 75 -204 84 -59 4 -63 3 -63 -16z"/>
<path d="M1696 3051 c-21 -92 -21 -171 -1 -171 11 0 15 11 15 43 0 23 7 69 15
100 19 72 19 97 1 97 -10 0 -20 -24 -30 -69z"/>
<path d="M2227 3059 c-53 -55 -86 -118 -87 -161 0 -23 4 -28 24 -28 19 0 24 6
29 38 10 59 48 125 90 151 41 27 49 51 15 51 -13 0 -41 -20 -71 -51z"/>
<path d="M3370 3061 c0 -10 7 -35 15 -54 8 -20 15 -66 15 -102 0 -58 2 -65 20
-65 19 0 19 5 14 78 -6 78 -34 162 -53 162 -6 0 -11 -8 -11 -19z"/>
<path d="M2361 2998 c-42 -29 -70 -73 -55 -88 8 -8 23 1 53 31 38 39 44 41 84
36 41 -6 61 -21 98 -77 9 -14 20 -22 24 -18 13 13 -5 58 -38 95 -28 29 -42 36
-83 40 -40 4 -55 0 -83 -19z"/>
<path d="M2016 2968 c-2 -7 -7 -32 -10 -55 -6 -38 -4 -43 14 -43 17 0 20 7 20
49 0 47 -15 78 -24 49z"/>
<path d="M2460 2681 c0 -17 5 -31 10 -31 6 0 10 11 10 24 0 14 -4 28 -10 31
-6 4 -10 -7 -10 -24z"/>
<path d="M1366 2648 c-9 -29 -27 -109 -40 -178 -13 -69 -27 -133 -31 -142 -4
-10 -3 -18 3 -18 6 0 16 26 22 58 19 98 23 104 77 100 l46 -3 19 -70 c33 -120
36 -92 6 47 -37 169 -61 251 -75 255 -7 3 -18 -18 -27 -49z m49 -40 c8 -29 16
-69 17 -88 3 -35 2 -35 -39 -38 -38 -3 -43 -1 -43 18 0 37 31 160 41 160 4 0
15 -24 24 -52z"/>
<path d="M2932 2623 c-18 -71 -62 -288 -62 -307 0 -4 4 -5 9 -2 4 3 11 28 15
56 12 92 19 102 73 98 l47 -3 21 -72 c11 -39 23 -75 28 -79 10 -10 9 10 -2 38
-5 13 -21 82 -36 153 -28 136 -47 195 -63 195 -6 0 -19 -35 -30 -77z m63 -39
c25 -96 23 -104 -30 -104 -25 0 -45 4 -45 9 0 14 29 153 36 171 8 21 20 -2 39
-76z"/>
<path d="M3330 2640 c0 -43 -3 -50 -20 -50 -11 0 -20 -4 -20 -10 0 -5 9 -10
20 -10 19 0 20 -7 20 -110 0 -104 1 -112 24 -135 17 -16 31 -23 43 -18 28 10
43 24 43 41 0 12 -4 11 -16 -6 -19 -27 -50 -29 -64 -3 -5 11 -10 67 -10 124
l0 105 33 8 32 8 -32 3 c-32 4 -33 5 -33 54 0 27 -4 49 -10 49 -5 0 -10 -22
-10 -50z"/>
<path d="M1543 2590 c-18 -7 -23 -17 -23 -43 0 -28 11 -47 55 -96 58 -65 66
-89 39 -116 -25 -25 -57 -14 -76 25 -16 33 -17 34 -18 9 0 -33 28 -59 66 -59
39 0 54 16 54 60 0 28 -9 45 -46 84 -25 28 -50 59 -54 70 -21 55 56 81 84 29
13 -25 15 -26 16 -7 0 43 -47 64 -97 44z"/>
<path d="M1704 2579 c-13 -15 -20 -40 -22 -90 -7 -124 17 -179 77 -179 46 0
61 10 60 39 0 24 -1 25 -9 5 -11 -27 -34 -36 -64 -24 -32 12 -46 39 -46 89 0
44 -1 44 85 45 29 1 30 2 28 49 -2 57 -24 87 -63 87 -15 0 -35 -9 -46 -21z
m86 -18 c5 -11 10 -33 10 -50 0 -30 -1 -31 -50 -31 -49 0 -50 1 -50 31 0 46
16 69 50 69 19 0 33 -7 40 -19z"/>
<path d="M1882 2584 c-40 -28 -27 -70 50 -150 43 -45 49 -87 16 -107 -26 -17
-68 7 -68 38 0 14 -4 25 -10 25 -17 0 -11 -39 10 -60 29 -29 76 -26 96 5 23
35 12 66 -47 131 -38 42 -49 62 -47 82 3 24 8 27 38 27 27 0 37 -6 47 -25 12
-23 13 -23 13 -4 0 25 -30 54 -56 54 -11 0 -30 -7 -42 -16z"/>
<path d="M2104 2590 c-27 -11 -72 -65 -80 -96 -4 -14 -4 -46 -1 -72 4 -37 12
-53 41 -79 30 -28 43 -33 84 -33 38 0 53 5 71 24 64 69 37 218 -46 252 -37 16
-40 16 -69 4z m81 -26 c27 -18 55 -81 55 -127 0 -17 -8 -48 -18 -67 -19 -39
-55 -52 -106 -38 -93 25 -114 156 -35 222 35 30 69 33 104 10z"/>
<path d="M2320 2580 c-18 -18 -20 -33 -20 -140 0 -73 4 -120 10 -120 6 0 10
46 10 119 0 134 6 147 62 136 31 -6 32 -5 14 10 -27 20 -52 19 -76 -5z"/>
<path d="M2467 2593 c-11 -11 -8 -271 3 -278 6 -4 10 45 10 139 0 80 -1 146
-3 146 -2 0 -7 -3 -10 -7z"/>
<path d="M3150 2589 c-13 -6 -28 -15 -32 -22 -12 -19 -10 -247 2 -247 7 0 10
40 8 116 -2 105 -1 117 17 130 26 19 71 18 79 -2 3 -9 6 -61 7 -117 0 -56 4
-111 9 -122 5 -13 9 29 9 112 1 125 0 133 -21 147 -25 18 -42 19 -78 5z"/>
<path d="M3543 2585 c-67 -29 -97 -149 -54 -218 25 -41 58 -57 115 -57 63 0
89 32 94 114 5 79 -20 135 -72 160 -41 19 -42 19 -83 1z m105 -39 c35 -40 47
-92 32 -143 -14 -52 -22 -63 -56 -72 -119 -32 -193 124 -103 217 44 45 87 44
127 -2z"/>
<path d="M2572 2578 c-22 -22 -13 -29 17 -13 38 19 57 11 65 -27 13 -66 9 -75
-38 -87 -49 -12 -63 -25 -72 -68 -5 -24 -1 -36 15 -52 26 -26 95 -29 109 -5
11 19 3 222 -10 247 -10 20 -67 24 -86 5z m86 -189 c-4 -64 -24 -82 -66 -59
-59 34 -26 107 51 109 16 1 18 -6 15 -50z"/>
<path d="M1143 2463 c20 -2 54 -2 75 0 20 2 3 4 -38 4 -41 0 -58 -2 -37 -4z"/>
<path d="M3778 2463 c23 -2 59 -2 80 0 20 2 1 4 -43 4 -44 0 -61 -2 -37 -4z"/>
</g>
</svg>
